<?xml version="1.0" encoding="UTF-8"?><svg id="k" xmlns="http://www.w3.org/2000/svg" width="24" height="24" viewBox="0 0 24 24"><path d="M20.52,6.96H3.48c-.332,0-.6-.268-.6-.6s.268-.6.6-.6h17.039c.332,0,.6.268.6.6s-.268.6-.6.6Z" fill="#c03" stroke-width="0"/><path d="M20.52,12.6H3.48c-.332,0-.6-.268-.6-.6s.268-.6.6-.6h17.039c.332,0,.6.268.6.6s-.268.6-.6.6Z" fill="#c03" stroke-width="0"/><path d="M20.52,18.24H3.48c-.332,0-.6-.268-.6-.6s.268-.6.6-.6h17.039c.332,0,.6.268.6.6s-.268.6-.6.6Z" fill="#c03" stroke-width="0"/></svg>