<?xml version="1.0" encoding="UTF-8"?><svg id="a" xmlns="http://www.w3.org/2000/svg" width="24" height="24" viewBox="0 0 24 24"><path d="M12.047,20.981c-.154,0-.307-.059-.424-.176l-7.184-7.184c-2.214-2.215-2.214-5.818,0-8.032,1.26-1.259,3.657-1.769,5.576-1.188.875.265,1.564.727,2.026,1.344.469-.648,1.175-1.13,2.077-1.403,1.91-.576,4.237-.053,5.537,1.247,2.099,2.098,2.109,5.691.022,8.009l-7.205,7.206c-.117.117-.271.176-.424.176ZM8.324,5.36c-1.17,0-2.353.394-3.036,1.078-1.746,1.746-1.746,4.588,0,6.335l6.759,6.759,6.759-6.759c1.617-1.797,1.627-4.709,0-6.335-.989-.99-2.856-1.399-4.341-.947-.71.215-1.604.708-1.83,1.838-.056.28-.302.482-.588.482h0c-.286,0-.532-.202-.588-.482-.217-1.087-1.094-1.568-1.791-1.779-.425-.128-.883-.19-1.344-.19Z" fill="#c03" stroke-width="0"/></svg>