<?xml version="1.0" encoding="UTF-8"?><svg id="a" xmlns="http://www.w3.org/2000/svg" width="16" height="16" viewBox="0 0 16 16"><path id="b" d="M15.595,13.465l-5.465-5.465,5.465-5.465c.568-.608.534-1.562-.076-2.13-.578-.54-1.476-.54-2.054,0l-5.465,5.465L2.535.405C1.927-.163.973-.129.405.481-.135,1.059-.135,1.957.405,2.535l5.465,5.465L.405,13.465c-.568.608-.534,1.562.076,2.13.578.54,1.476.54,2.054,0l5.465-5.465,5.465,5.465c.608.568,1.562.534,2.13-.076.54-.578.54-1.476,0-2.054Z" fill="#fff" stroke-width="0"/></svg>