<?xml version="1.0" encoding="UTF-8"?>
<svg id="_レイヤー_2" data-name="レイヤー 2" xmlns="http://www.w3.org/2000/svg" viewBox="0 0 50 50">
  <defs>
    <style>
      .cls-1 {
        fill: #bf1733;
      }
    </style>
  </defs>
  <g id="_レイヤー_1-2" data-name="レイヤー 1">
    <g>
      <rect class="cls-1" x="36.17" y="19.85" width="13.83" height="30.01" rx="1" ry="1"/>
      <path class="cls-1" d="m47.72,17.62h-11.11c-.28,0-.54-.11-.73-.32L21.25,1.68c-.6-.64-.15-1.68.73-1.68h11.31c.28,0,.55.12.73.32l4.08,4.42V1c0-.55.45-1,1-1h3.84c.55,0,1,.45,1,1v9.67c0,.25.09.49.27.68l4.25,4.6c.59.64.14,1.68-.73,1.68Z"/>
      <path class="cls-1" d="m15.36.91L.22,19.64c-.14.18-.22.4-.22.63v28.73c0,.55.45,1,1,1h32.04c.55,0,1-.45,1-1v-28.7c0-.25-.09-.49-.26-.67L16.88.87c-.41-.46-1.13-.44-1.52.04Zm-3.38,42.63c-1.59-.1-2.79-1.49-2.67-3.07s1.49-2.79,3.07-2.67c1.59.1,2.79,1.49,2.67,3.07-.1,1.59-1.49,2.79-3.07,2.67Zm10.28-20.33c-.48,1.28-5.38,9.25-7.97,13.41-.38.6-1.28.26-1.2-.42.66-4.86,1.93-14.13,2.39-15.42.64-1.79,2.67-2.69,4.54-2.01,1.89.66,2.87,2.65,2.25,4.44Z"/>
    </g>
  </g>
</svg>