<svg xmlns="http://www.w3.org/2000/svg" width="25" height="25" viewBox="0 0 25 25">
  <g id="グループ_10605" data-name="グループ 10605" transform="translate(-308 4701)">
    <circle id="楕円形_308" data-name="楕円形 308" cx="12.5" cy="12.5" r="12.5" transform="translate(308 -4701)" fill="#c03"/>
    <g id="c" transform="translate(312 -4695.313)">
      <path id="パス_12026" data-name="パス 12026" d="M16.11,1.122H14.291a1.985,1.985,0,0,0-3.575,0H.882a.882.882,0,0,0,0,1.763h9.835a1.985,1.985,0,0,0,3.575,0H16.11a.882.882,0,1,0,0-1.763Zm-5.546.4a.08.08,0,0,1-.008.032A.061.061,0,0,1,10.564,1.523Zm-.008.938a.08.08,0,0,0,.008.032A.061.061,0,0,0,10.556,2.461Zm1.948.745a1.2,1.2,0,1,1,1.2-1.2A1.2,1.2,0,0,1,12.5,3.206Zm2-1.2Zm-.064.481a.08.08,0,0,1,.008-.032A.061.061,0,0,1,14.443,2.485Zm0-.962a.08.08,0,0,0,.008.032A.061.061,0,0,0,14.443,1.523Z" fill="#fff"/>
      <path id="パス_12027" data-name="パス 12027" d="M.882,8.885H2.7a1.991,1.991,0,0,0,3.583,0h9.835a.882.882,0,0,0,0-1.763H6.276a1.985,1.985,0,0,0-3.575,0H.882a.882.882,0,0,0,0,1.763Zm5.546-.4a.08.08,0,0,1,.008-.032A.061.061,0,0,1,6.428,8.485Zm.008-.938a.08.08,0,0,0-.008-.032A.061.061,0,0,0,6.436,7.547ZM4.488,6.8A1.2,1.2,0,1,1,3.286,8,1.2,1.2,0,0,1,4.488,6.8Zm-2,1.2Zm.064-.481a.08.08,0,0,1-.008.032A.061.061,0,0,1,2.549,7.523Zm0,.962a.08.08,0,0,0-.008-.032A.061.061,0,0,0,2.549,8.485Z" transform="translate(0 -1.191)" fill="#fff"/>
      <path id="パス_12028" data-name="パス 12028" d="M16.11,13.122H14.291a1.991,1.991,0,0,0-3.583,0H.882a.882.882,0,1,0,0,1.763h9.835a1.985,1.985,0,0,0,3.575,0H16.11a.882.882,0,1,0,0-1.763Zm-5.546.4a.08.08,0,0,1-.008.032A.061.061,0,0,1,10.564,13.523Zm-.008.938a.08.08,0,0,0,.008.032A.061.061,0,0,0,10.556,14.461Zm1.948.745a1.2,1.2,0,1,1,1.2-1.2A1.2,1.2,0,0,1,12.5,15.206Zm2-1.2Zm-.064.481a.08.08,0,0,1,.008-.032A.061.061,0,0,1,14.443,14.485Zm0-.962a.08.08,0,0,0,.008.032A.061.061,0,0,0,14.443,13.523Z" transform="translate(0 -2.382)" fill="#fff"/>
    </g>
  </g>
</svg>
