<svg xmlns="http://www.w3.org/2000/svg" width="25" height="25" viewBox="0 0 25 25">
  <g id="閉じるボタン" transform="translate(0.053)">
    <circle id="楕円形_1" data-name="楕円形 1" cx="11.5" cy="11.5" r="11.5" transform="translate(0.947 1)" fill="#222"/>
    <path id="_10" data-name="10" d="M580.5,1112a12.5,12.5,0,1,1,12.5-12.5A12.5,12.5,0,0,1,580.5,1112Zm0-23.437a10.938,10.938,0,1,0,10.938,10.937A10.937,10.937,0,0,0,580.5,1088.563Zm1.109,10.942,3.31,3.31a.781.781,0,1,1-1.1,1.1l-3.31-3.31-3.333,3.333a.787.787,0,0,1-1.114-1.114l3.333-3.333-3.31-3.31a.781.781,0,0,1,1.1-1.1l3.31,3.31,3.357-3.357a.787.787,0,0,1,1.114,1.113Z" transform="translate(-568.053 -1087)" fill="#fff"/>
  </g>
</svg>
