<?xml version="1.0" encoding="UTF-8"?><svg id="b" xmlns="http://www.w3.org/2000/svg" width="24" height="24" viewBox="0 0 24 24"><path d="M12.016,20.856c-3.063,0-6.045-1.588-7.684-4.426-.166-.287-.067-.654.22-.82.286-.167.653-.068.82.22,2.111,3.656,6.801,4.914,10.458,2.802,3.656-2.111,4.913-6.802,2.803-10.458-1.022-1.771-2.674-3.038-4.649-3.567-1.976-.529-4.039-.258-5.81.765-2.376,1.372-3.843,3.93-3.829,6.677.002.331-.265.601-.597.603h-.003c-.33,0-.598-.267-.6-.597-.016-3.176,1.681-6.135,4.429-7.722,2.048-1.183,4.434-1.498,6.72-.885,2.285.612,4.195,2.078,5.378,4.126,1.182,2.049,1.497,4.436.885,6.72-.612,2.285-2.078,4.195-4.127,5.378-1.391.803-2.912,1.185-4.413,1.185Z" fill="#c03" stroke-width="0"/><path d="M3.744,15.096l2.58-3.096H1.164l2.58,3.096Z" fill="#c03" stroke-width="0"/><path d="M15.096,13.632h-3.096c-.332,0-.6-.268-.6-.6v-5.16c0-.332.268-.6.6-.6s.6.268.6.6v4.56h2.496c.332,0,.6.268.6.6s-.268.6-.6.6Z" fill="#c03" stroke-width="0"/></svg>