<?xml version="1.0" encoding="UTF-8"?><svg id="c" xmlns="http://www.w3.org/2000/svg" width="24" height="24" viewBox="0 0 24 24"><path d="M18.66,20.695H5.34c-1.555,0-2.82-1.265-2.82-2.82v-4.44c0-.088.019-.173.054-.248l3.036-7.085c.269-.629.886-1.037,1.571-1.037h9.636c.686,0,1.303.407,1.572,1.037l3.036,7.085c.035.076.054.16.054.248v4.44c0,1.555-1.265,2.82-2.82,2.82ZM3.72,14.035v3.84c0,.894.727,1.62,1.62,1.62h13.32c.894,0,1.62-.727,1.62-1.62v-3.84h-3.84c-.281,0-.51.229-.51.51v1.11c0,.943-.767,1.71-1.71,1.71h-4.44c-.943,0-1.71-.767-1.71-1.71v-1.11c0-.281-.229-.51-.51-.51h-3.84ZM4.03,12.835h3.53c.943,0,1.71.767,1.71,1.71v1.11c0,.281.229.51.51.51h4.44c.281,0,.51-.229.51-.51v-1.11c0-.943.767-1.71,1.71-1.71h3.53l-2.683-6.261c-.08-.188-.264-.309-.469-.309H7.182c-.204,0-.388.121-.468.309l-2.684,6.261Z" fill="#fff" stroke-width="0"/></svg>