<?xml version="1.0" encoding="UTF-8"?><svg id="a" xmlns="http://www.w3.org/2000/svg" width="80" height="22.081" viewBox="0 0 80 22.081"><path d="M43.559,8.119c-3.189,0-5.033,1.493-5.033,4.959v1.161c0,3.447,1.844,4.94,5.033,4.94,3.225,0,5.069-1.493,5.069-4.94v-1.161c0-3.466-1.843-4.959-5.069-4.959M45.421,14.266c0,1.947-.553,2.621-1.862,2.621-1.29,0-1.843-.674-1.843-2.621v-1.215c0-1.947.553-2.622,1.843-2.622,1.309,0,1.862.675,1.862,2.622v1.215Z" fill="#fff" stroke-width="0"/><path d="M33.432,8.119c-1.18,0-2.341.332-3.152.737V3.135h-3.207v7.541c-1.543,1.135-2.673,2.172-3.468,2.999v1.825c1.259-1.151,2.45-2.001,3.468-2.621v6.023h3.207v-7.871c.479-.221,1.308-.498,2.12-.498,1.032,0,1.382.387,1.382,1.751v6.617h3.207v-6.654c0-2.433-.645-4.129-3.557-4.129" fill="#fff" stroke-width="0"/><path d="M18.424,16.986c-.811,0-.866-.185-.866-1.051v-5.253h3.087v-2.286h-3.087v-2.654h-3.207v10.23c0,2.323.977,3.207,3.207,3.207,2.252,0,3.63-1.57,3.63-1.57v-1.82c-1.45,1.252-2.763,1.196-2.763,1.196" fill="#fff" stroke-width="0"/><path d="M70.123,14.744c.476.039,1.164.064,1.516.064,2.986,0,5.04-.458,5.04-3.26,0-1.952-1.827-3.429-4.803-3.429-3.318,0-4.903,1.622-4.903,5.291v.572c0,3.852,1.456,5.198,5.309,5.198,1.621,0,2.973-.276,3.82-.466v-2.095c-1.6.194-2.66.252-3.673.252-2.222,0-2.304-.792-2.306-2.126M71.858,10.405c1.105,0,1.762.563,1.762,1.253,0,1.198-.627,1.308-2.083,1.308l-1.414-.06v-.723c0-1.346.671-1.777,1.734-1.777" fill="#fff" stroke-width="0"/><path d="M62.151,8.119c-.977,0-2.138.332-3.318,1.143-.461-.719-1.198-1.143-2.488-1.143-1.07,0-2.123.36-2.96.95l-.21-.674h-3.023v10.507h3.207v-7.852c.516-.258,1.198-.535,1.807-.535.995,0,1.032.553,1.032,1.549v6.838h3.207v-7.899c.577-.297,1.232-.488,1.714-.488,1.088,0,1.106.553,1.106,1.549v6.838h3.208v-6.912c0-2.046-.387-3.871-3.281-3.871" fill="#fff" stroke-width="0"/><path d="M7.315,8.119c-1.741,0-3.384.47-3.384.47v2.06c1.138-.231,2.253-.241,3.171-.241,2.237,0,2.368.823,2.371,2.173-.337-.063-.972-.129-1.432-.129-2.986,0-5.124.497-5.124,3.299,0,1.952,1.827,3.428,4.804,3.428,1.034,0,1.899-.254,2.601-.702l.17.425h2.13l.002-5.585c0-3.853-1.456-5.198-5.309-5.198M7.739,16.893c-1.105,0-1.763-.563-1.763-1.253,0-1.198.627-1.384,2.083-1.384.352,0,1.048.064,1.414.131v1.518c0,.662-.671.988-1.734.988" fill="#fff" stroke-width="0"/><rect width="80" height="22.081" fill="none" stroke-width="0"/></svg>