<?xml version="1.0" encoding="UTF-8"?>
<svg id="_レイヤー_2" data-name="レイヤー 2" xmlns="http://www.w3.org/2000/svg" xmlns:xlink="http://www.w3.org/1999/xlink" viewBox="0 0 40 40">
  <defs>
    <style>
      .cls-1, .cls-2 {
        fill: none;
      }

      .cls-2 {
        clip-path: url(#clippath);
      }

      .cls-3 {
        fill: #bf1733;
      }
    </style>
    <clipPath id="clippath">
      <rect class="cls-1" width="40" height="40"/>
    </clipPath>
  </defs>
  <g id="_レイヤー_1-2" data-name="レイヤー 1">
    <g class="cls-2">
      <g id="_グループ_7790" data-name="グループ 7790">
        <path id="Icon_awesome-calculator" data-name="Icon awesome-calculator" class="cls-3" d="m33.75,0H6.25c-2.05.05-3.7,1.7-3.75,3.75v32.51c.06,2.04,1.71,3.68,3.75,3.73h27.5c2.04-.05,3.69-1.69,3.75-3.73V3.75c-.05-2.05-1.7-3.7-3.75-3.75h.01ZM12.49,34c-.03.54-.46.96-1,1h-3c-.54-.03-.96-.46-1-1v-3c.03-.54.46-.96,1-1h3.01c.54.03.96.46,1,1v3Zm0-10c-.03.54-.46.96-1,1h-3c-.53-.04-.95-.46-.99-1v-3c.03-.53.45-.96.99-1h3.01c.54.03.96.46,1,1v3Zm10,10c-.03.54-.46.96-1,1h-2.99c-.54-.03-.96-.46-1-1v-3c.03-.54.46-.96,1-1h3c.54.03.96.46,1,1v3Zm0-10c-.03.54-.46.96-1,1h-2.99c-.54-.03-.96-.46-1-1v-3c.03-.54.46-.96,1-1h3c.54.03.96.46,1,1v3Zm10,10c-.03.54-.46.96-1,1h-3c-.54-.03-.96-.46-1-1v-13c.03-.54.46-.96,1-1h3.01c.54.03.96.46,1,1v13Zm0-20c-.03.54-.46.96-1,1H8.49c-.54-.03-.96-.46-1-1V6c.04-.54.46-.96,1-.99h23.01c.54.03.96.46,1,1v8h-.01Z"/>
      </g>
    </g>
  </g>
</svg>