<svg xmlns="http://www.w3.org/2000/svg" width="25" height="25" viewBox="0 0 25 25">
    <defs>
        <clipPath id="52pq9o4tla">
            <path data-name="長方形 8273" style="fill:none" d="M0 0h16v16H0z"/>
        </clipPath>
    </defs>
    <g data-name="グループ 9454" transform="translate(13178 14609)">
        <circle data-name="楕円形 297" cx="12.5" cy="12.5" r="12.5" transform="translate(-13178 -14609)" style="fill:#c03"/>
        <g data-name="レイヤー 1">
            <g data-name="グループ 9149" transform="translate(-13174 -14605)" style="clip-path:url(#52pq9o4tla)">
                <g data-name="グループ 9146">
                    <g data-name="グループ 19">
                        <path data-name="長方形 29" d="M14.573 31.41h1.854a.77.77 0 0 1 .769.773.769.769 0 0 1-.769.769h-1.854a.775.775 0 0 1-.773-.769.773.773 0 0 1 .773-.773z" transform="translate(-8.275 -18.849)" style="fill:#fff"/>
                    </g>
                    <g data-name="グループ 20">
                        <path data-name="パス 1" d="M29.157 1.164a.277.277 0 0 0-.276.276v1.053a.277.277 0 0 1-.276.276h-.088a.277.277 0 0 0-.276.276v1.978a.277.277 0 0 0 .276.276h.783a.277.277 0 0 0 .276-.276v-.188a.277.277 0 0 1 .276-.276h2.823a.277.277 0 0 0 .276-.276V1.436a.277.277 0 0 0-.276-.276h-3.518z" transform="translate(-16.934 -.71)" style="fill:#fff"/>
                    </g>
                    <g data-name="グループ 21">
                        <path data-name="パス 2" d="M2.716 24.77a.277.277 0 0 0-.276.276v1.045a.277.277 0 0 0 .276.276h.444a.277.277 0 0 1 .276.276v2.062a.277.277 0 0 0 .276.276H5.9a.277.277 0 0 0 .276-.276V25.05a.277.277 0 0 0-.276-.276H2.716z" transform="translate(-1.463 -14.867)" style="fill:#fff"/>
                    </g>
                    <g data-name="グループ 22">
                        <path data-name="パス 3" d="M19.537 17.712a.277.277 0 0 1-.276.276h-5.185a.277.277 0 0 0-.276.276v1.241a.277.277 0 0 0 .276.276h3.715a.277.277 0 0 1 .276.276v1.863a.277.277 0 0 0 .276.276h2.162a.277.277 0 0 0 .276-.276v-.689a.277.277 0 0 1 .276-.276h.54a.277.277 0 0 1 .276.276v.689a.277.277 0 0 0 .276.276h.985a.277.277 0 0 0 .276-.276v-8.184a.277.277 0 0 0-.276-.276h-3.321a.277.277 0 0 0-.276.276v3.976z" transform="translate(-8.275 -8.086)" style="fill:#fff"/>
                    </g>
                    <g data-name="グループ 23">
                        <path data-name="長方形 30" d="M.516 35.49a.518.518 0 0 1 .516.516v.3a.518.518 0 0 1-.516.516.518.518 0 0 1-.516-.515v-.3a.518.518 0 0 1 .516-.517z" transform="translate(0 -21.296)" style="fill:#fff"/>
                    </g>
                </g>
            </g>
        </g>
    </g>
</svg>
