<svg xmlns="http://www.w3.org/2000/svg" width="20" height="20" viewBox="0 0 20 20">
    <circle cx="10" cy="10" r="10" fill="#f8890a"/>
    <path fill="#fff" d="M7.672-2.828a6.682 6.682 0 0 1-.042-.714c0-.742.224-1.078 1.092-1.666a5.717 5.717 0 0 0 1.722-1.442 2.631 2.631 0 0 0 .49-1.652 2.408 2.408 0 0 0-.994-1.96 4.376 4.376 0 0 0-2.814-.84 4.53 4.53 0 0 0-3.094.98 3.541 3.541 0 0 0-1.106 2.114L5-7.756a2.031 2.031 0 0 1 .334-1.064 1.961 1.961 0 0 1 1.68-.8c1.19 0 1.932.532 1.932 1.386 0 .644-.322 1.078-1.232 1.68A4.68 4.68 0 0 0 6.4-5.5a2.8 2.8 0 0 0-.574 1.82l.014.266a4.817 4.817 0 0 1-.042.588zm-1.96 1.162V.252h2.03v-1.918z" transform="translate(3.074 15.102)"/>
</svg>
